<mxfile host="app.diagrams.net" modified="2022-04-07T06:27:16.824Z" agent="5.0 (X11; Linux x86_64) AppleWebKit/537.36 (KHTML, like Gecko) Chrome/100.0.4896.79 Safari/537.36" etag="W5d52l5rlLV1CQdriJKU" version="17.4.0" type="github">
  <diagram id="C5RBs43oDa-KdzZeNtuy" name="Page-1">
    <mxGraphModel dx="1577" dy="600" grid="1" gridSize="10" guides="1" tooltips="1" connect="1" arrows="1" fold="1" page="1" pageScale="1" pageWidth="827" pageHeight="1169" math="0" shadow="0">
      <root>
        <mxCell id="WIyWlLk6GJQsqaUBKTNV-0" />
        <mxCell id="WIyWlLk6GJQsqaUBKTNV-1" parent="WIyWlLk6GJQsqaUBKTNV-0" />
        <mxCell id="--dWJRHX75SRgyuAdrLD-0" value="&lt;p style=&quot;margin: 0px ; margin-top: 6px ; text-align: center&quot;&gt;&lt;b&gt;&lt;font style=&quot;font-size: 20px&quot;&gt;Config&lt;/font&gt;&lt;span style=&quot;font-size: 13px&quot;&gt;&amp;nbsp;&lt;/span&gt;&lt;/b&gt;&lt;/p&gt;&lt;hr&gt;&lt;p style=&quot;margin: 0px 0px 0px 8px ; font-size: 14px&quot;&gt;&lt;font style=&quot;font-size: 14px&quot;&gt;# Common Config&lt;/font&gt;&lt;/p&gt;&lt;p style=&quot;margin: 0px 0px 0px 8px ; font-size: 14px&quot;&gt;&lt;font style=&quot;font-size: 14px&quot;&gt;#-----------------------&lt;/font&gt;&lt;/p&gt;&lt;p style=&quot;margin: 0px 0px 0px 8px ; font-size: 14px&quot;&gt;&lt;font style=&quot;font-size: 14px&quot;&gt;&lt;br&gt;&lt;/font&gt;&lt;/p&gt;&lt;p style=&quot;margin: 0px 0px 0px 8px ; font-size: 14px&quot;&gt;&lt;font style=&quot;font-size: 14px&quot;&gt;+ upstream_header_name: String&lt;br&gt;+ termination.status_code: Integer&lt;/font&gt;&lt;/p&gt;&lt;p style=&quot;margin: 0px 0px 0px 8px ; font-size: 14px&quot;&gt;&lt;font style=&quot;font-size: 14px&quot;&gt;+&amp;nbsp;termination.header_name: String&lt;/font&gt;&lt;/p&gt;&lt;p style=&quot;margin: 0px 0px 0px 8px ; font-size: 14px&quot;&gt;&lt;font style=&quot;font-size: 14px&quot;&gt;+&amp;nbsp;termination.header_value: String&lt;/font&gt;&lt;/p&gt;&lt;p style=&quot;margin: 0px 0px 0px 8px ; font-size: 14px&quot;&gt;+&amp;nbsp;level_1.header_value: String&lt;span&gt;&amp;nbsp;&lt;/span&gt;&lt;/p&gt;&lt;p style=&quot;margin: 0px 0px 0px 8px ; font-size: 14px&quot;&gt;+&amp;nbsp;level_2.header_value: String&lt;span&gt;&amp;nbsp;&lt;/span&gt;&lt;span&gt;&lt;br&gt;&lt;/span&gt;&lt;/p&gt;&lt;p style=&quot;margin: 0px 0px 0px 8px ; font-size: 14px&quot;&gt;+&amp;nbsp;level_3.header_value: String&lt;span&gt;&amp;nbsp;&lt;/span&gt;&lt;span&gt;&lt;br&gt;&lt;/span&gt;&lt;/p&gt;&lt;span style=&quot;font-size: 14px&quot;&gt;&amp;nbsp;&amp;nbsp;&lt;/span&gt;&lt;span style=&quot;font-size: 14px&quot;&gt;+ window_size_secs: Float&lt;/span&gt;&lt;span style=&quot;font-size: 14px&quot;&gt;&lt;br&gt;&lt;/span&gt;&lt;p style=&quot;margin: 0px 0px 0px 8px ; font-size: 14px&quot;&gt;&lt;font style=&quot;font-size: 14px&quot;&gt;+&amp;nbsp;MRT_aggregation_metric: String {avg | Nth percentile}&lt;/font&gt;&lt;/p&gt;&lt;p style=&quot;margin: 0px 0px 0px 8px ; font-size: 14px&quot;&gt;&lt;font style=&quot;font-size: 14px&quot;&gt;&lt;br&gt;&lt;/font&gt;&lt;/p&gt;&lt;p style=&quot;margin: 0px 0px 0px 8px ; font-size: 14px&quot;&gt;&lt;font style=&quot;font-size: 14px&quot;&gt;#AIMD Specific Config&lt;/font&gt;&lt;/p&gt;&lt;p style=&quot;margin: 0px 0px 0px 8px ; font-size: 14px&quot;&gt;&lt;font style=&quot;font-size: 14px&quot;&gt;#----------------------------&lt;/font&gt;&lt;/p&gt;&lt;p style=&quot;margin: 0px 0px 0px 8px ; font-size: 14px&quot;&gt;&lt;font style=&quot;font-size: 14px&quot;&gt;&lt;br&gt;&lt;/font&gt;&lt;/p&gt;&lt;p style=&quot;margin: 0px 0px 0px 8px ; font-size: 14px&quot;&gt;&lt;font style=&quot;font-size: 14px&quot;&gt;+ k_g: Integer&lt;br&gt;&lt;/font&gt;&lt;/p&gt;&lt;p style=&quot;margin: 0px 0px 0px 8px ; font-size: 14px&quot;&gt;&lt;font style=&quot;font-size: 14px&quot;&gt;+&amp;nbsp;k_y: Integer&lt;/font&gt;&lt;/p&gt;&lt;p style=&quot;margin: 0px 0px 0px 8px ; font-size: 14px&quot;&gt;&lt;font style=&quot;font-size: 14px&quot;&gt;+&amp;nbsp;k_r: Integer&lt;/font&gt;&lt;/p&gt;&lt;p style=&quot;margin: 0px 0px 0px 8px ; font-size: 14px&quot;&gt;&lt;font style=&quot;font-size: 14px&quot;&gt;+ u_RT: Float&lt;br&gt;&lt;/font&gt;&lt;/p&gt;&lt;p style=&quot;margin: 0px 0px 0px 8px ; font-size: 14px&quot;&gt;&lt;font style=&quot;font-size: 14px&quot;&gt;+ min_requests: Integer&lt;br&gt;&lt;/font&gt;&lt;/p&gt;&lt;p style=&quot;margin: 0px 0px 0px 8px ; font-size: 14px&quot;&gt;&lt;font style=&quot;font-size: 14px&quot;&gt;&lt;br&gt;&lt;/font&gt;&lt;/p&gt;&lt;p style=&quot;margin: 0px 0px 0px 8px ; font-size: 14px&quot;&gt;&lt;font style=&quot;font-size: 14px&quot;&gt;# Vegas&amp;nbsp;Specific Config&lt;/font&gt;&lt;/p&gt;&lt;p style=&quot;margin: 0px 0px 0px 8px ; font-size: 14px&quot;&gt;&lt;font style=&quot;font-size: 14px&quot;&gt;#-----------------------------&lt;/font&gt;&lt;/p&gt;&lt;p style=&quot;margin: 0px 0px 0px 8px ; font-size: 14px&quot;&gt;&lt;font style=&quot;font-size: 14px&quot;&gt;&lt;br&gt;&lt;/font&gt;&lt;/p&gt;&lt;p style=&quot;margin: 0px 0px 0px 8px ; font-size: 14px&quot;&gt;&lt;font style=&quot;font-size: 14px&quot;&gt;+ MRT_NoLoad: Float&lt;br&gt;&lt;/font&gt;&lt;/p&gt;&lt;p style=&quot;margin: 0px 0px 0px 8px ; font-size: 14px&quot;&gt;&lt;br&gt;&lt;/p&gt;&lt;p style=&quot;margin: 0px 0px 0px 8px ; font-size: 14px&quot;&gt;# Gradient Specific Config&lt;/p&gt;&lt;p style=&quot;margin: 0px 0px 0px 8px ; font-size: 14px&quot;&gt;#---------------------------------&lt;/p&gt;&lt;p style=&quot;margin: 0px 0px 0px 8px ; font-size: 14px&quot;&gt;&lt;br&gt;&lt;/p&gt;&lt;p style=&quot;margin: 0px 0px 0px 8px ; font-size: 14px&quot;&gt;+ tolerance: Integer&amp;nbsp;&lt;/p&gt;&lt;p style=&quot;margin: 0px 0px 0px 8px ; font-size: 14px&quot;&gt;+&amp;nbsp;longMRT_compute_cycles: Integer&lt;/p&gt;&lt;p style=&quot;margin: 0px 0px 0px 8px ; font-size: 14px&quot;&gt;+&amp;nbsp;thresh1: Float&amp;nbsp;&lt;/p&gt;&lt;p style=&quot;margin: 0px 0px 0px 8px ; font-size: 14px&quot;&gt;+&amp;nbsp;thresh2: Float&lt;/p&gt;" style="align=left;overflow=fill;html=1;dropTarget=0;" vertex="1" parent="WIyWlLk6GJQsqaUBKTNV-1">
          <mxGeometry x="200" y="200" width="380" height="630" as="geometry" />
        </mxCell>
        <mxCell id="--dWJRHX75SRgyuAdrLD-1" value="" style="shape=component;jettyWidth=8;jettyHeight=4;" vertex="1" parent="--dWJRHX75SRgyuAdrLD-0">
          <mxGeometry x="1" width="20" height="20" relative="1" as="geometry">
            <mxPoint x="-24" y="4" as="offset" />
          </mxGeometry>
        </mxCell>
      </root>
    </mxGraphModel>
  </diagram>
</mxfile>
